<?xml version="1.0" encoding="utf-8"?>
<!-- Generator: Adobe Illustrator 17.0.0, SVG Export Plug-In . SVG Version: 6.00 Build 0)  -->
<!DOCTYPE svg PUBLIC "-//W3C//DTD SVG 1.1//EN" "http://www.w3.org/Graphics/SVG/1.1/DTD/svg11.dtd">
<svg version="1.1" id="图层_1" xmlns="http://www.w3.org/2000/svg" xmlns:xlink="http://www.w3.org/1999/xlink" x="0px" y="0px"
	 width="20.478px" height="15.111px" viewBox="0 0 20.478 15.111" enable-background="new 0 0 20.478 15.111" xml:space="preserve">
<g>
	<path fill="#959696" d="M10.239,15.111c-4.519,0-8.616-2.934-10.194-7.301c-0.059-0.164-0.059-0.344,0-0.508
		C1.623,2.934,5.72,0,10.239,0s8.616,2.934,10.194,7.301c0.059,0.164,0.059,0.344,0,0.508
		C18.855,12.177,14.758,15.111,10.239,15.111z M1.546,7.555c1.429,3.637,4.889,6.061,8.693,6.061s7.264-2.424,8.693-6.061
		c-1.429-3.637-4.889-6.061-8.693-6.061S2.975,3.919,1.546,7.555z"/>
	<path fill="#959696" d="M10.239,11.758c-2.317,0-4.202-1.885-4.202-4.203s1.885-4.203,4.202-4.203s4.203,1.885,4.203,4.203
		S12.556,11.758,10.239,11.758z M10.239,4.847c-1.493,0-2.708,1.214-2.708,2.708s1.215,2.708,2.708,2.708
		c1.493,0,2.708-1.214,2.708-2.708S11.732,4.847,10.239,4.847z"/>
</g>
</svg>
