<?xml version="1.0" encoding="utf-8"?>
<!-- Generator: Adobe Illustrator 17.0.0, SVG Export Plug-In . SVG Version: 6.00 Build 0)  -->
<!DOCTYPE svg PUBLIC "-//W3C//DTD SVG 1.1//EN" "http://www.w3.org/Graphics/SVG/1.1/DTD/svg11.dtd">
<svg version="1.1" id="图层_1" xmlns="http://www.w3.org/2000/svg" xmlns:xlink="http://www.w3.org/1999/xlink" x="0px" y="0px"
	 width="11.883px" height="10.097px" viewBox="0 0 11.883 10.097" enable-background="new 0 0 11.883 10.097" xml:space="preserve">
<path fill="#9E9F9F" d="M5.942,10.097c-0.1,0-0.197-0.018-0.288-0.054C3.668,9.267,0.386,6.964,0.037,4.09
	c-0.145-1.195,0.143-2.267,0.809-3.02C1.458,0.379,2.358,0,3.381,0C4.49,0,5.386,0.554,5.942,1.017C6.497,0.554,7.393,0,8.502,0
	c1.022,0,1.923,0.379,2.535,1.07c0.666,0.752,0.953,1.825,0.809,3.02c-0.349,2.875-3.631,5.177-5.618,5.954
	C6.129,10.08,6.036,10.097,5.942,10.097z M3.381,0.85c-0.776,0-1.451,0.279-1.899,0.784C0.979,2.201,0.765,3.038,0.88,3.988
	c0.284,2.338,3.179,4.511,5.062,5.255c1.874-0.738,4.777-2.914,5.061-5.255c0.115-0.95-0.099-1.787-0.601-2.354
	C9.953,1.128,9.278,0.85,8.502,0.85c-1.035,0-1.864,0.654-2.265,1.043c-0.164,0.159-0.427,0.159-0.592,0
	C5.244,1.503,4.416,0.85,3.381,0.85z"/>
</svg>
